<?xml version="1.0" encoding="iso-8859-1"?>
<!-- Uploaded to: SVG Repo, www.svgrepo.com, Generator: SVG Repo Mixer Tools -->
<svg fill="#000000" height="800px" width="800px" version="1.1" id="Layer_1" xmlns="http://www.w3.org/2000/svg" xmlns:xlink="http://www.w3.org/1999/xlink" 
	 viewBox="0 0 512 512" xml:space="preserve">
<g>
	<g>
		<circle cx="249.681" cy="162.544" r="7.837"/>
	</g>
</g>
<g>
	<g>
		<path fill="#251351" d="M285.094,467.334l-67.638-67.465c-3.066-3.057-8.028-3.051-11.083,0.015c-3.056,3.065-3.05,8.026,0.015,11.082
			l67.637,67.465c1.531,1.526,3.533,2.288,5.535,2.288c2.009,0,4.018-0.768,5.549-2.303
			C288.165,475.351,288.158,470.39,285.094,467.334z"/>
	</g>
</g>
<g>
	<g>
		<path fill="#251351" d="M309.629,442.86l-67.637-67.465c-3.065-3.056-8.027-3.05-11.083,0.015c-3.056,3.065-3.05,8.026,0.015,11.082
			l67.636,67.465c1.53,1.526,3.533,2.288,5.535,2.288c2.009,0,4.018-0.768,5.548-2.303
			C312.7,450.878,312.694,445.916,309.629,442.86z"/>
	</g>
</g>
<g>
	<g>
		<path fill="#251351" d="M334.165,418.387l-67.638-67.465c-3.067-3.057-8.028-3.049-11.083,0.015c-3.056,3.065-3.05,8.026,0.015,11.082
			l67.637,67.465c1.531,1.526,3.533,2.288,5.535,2.288c2.009,0,4.018-0.768,5.549-2.303
			C337.236,426.404,337.23,421.443,334.165,418.387z"/>
	</g>
</g>
<g>
	<g>
		<path fill="#251351" d="M358.7,393.913l-67.638-67.464c-3.067-3.057-8.028-3.05-11.083,0.015c-3.056,3.065-3.05,8.026,0.015,11.082l67.638,67.464
			c1.53,1.527,3.532,2.288,5.534,2.288c2.009,0,4.019-0.768,5.549-2.303C361.771,401.93,361.765,396.969,358.7,393.913z"/>
	</g>
</g>
<g>
	<g>
		<path fill="#251351" d="M276.197,175.667c-4.329,0-7.837,3.509-7.837,7.837v3.441c0,2.972-2.433,5.39-5.423,5.39c-0.75,0-0.936-0.108-0.936-0.109
			c-0.848-0.716-1.503-4.63-1.784-6.301c-0.63-3.758-2.104-12.561-10.54-12.561c-8.435,0-9.91,8.802-10.54,12.561
			c-0.28,1.672-0.936,5.588-1.765,6.288c-0.001,0.002-0.253,0.121-0.953,0.121c-2.991,0-5.423-2.418-5.423-5.39v-3.441
			c0-4.328-3.509-7.837-7.837-7.837c-4.328,0-7.837,3.509-7.837,7.837v3.441c0,11.614,9.464,21.063,21.096,21.063
			c6.493,0,10.608-2.684,13.259-6.157c2.651,3.472,6.767,6.157,13.259,6.157c11.633,0,21.096-9.448,21.096-21.063v-3.441
			C284.034,179.176,280.526,175.667,276.197,175.667z"/>
	</g>
</g>
<g>
	<g>
		<path fill="#251351" d="M234.896,121.573c-10.82-6.274-36.375-13.242-55.654,5.293c-3.12,3-3.218,7.961-0.218,11.08
			c1.539,1.601,3.592,2.405,5.651,2.405c1.954,0,3.91-0.726,5.43-2.187c15.498-14.899,36.04-3.537,36.955-3.018
			c3.741,2.15,8.518,0.872,10.684-2.863C239.914,128.54,238.64,123.745,234.896,121.573z"/>
	</g>
</g>
<g>
	<g>
		<path fill="#251351" d="M320.118,126.866c-19.28-18.536-44.834-11.566-55.654-5.292c-3.744,2.171-5.02,6.966-2.848,10.711
			c2.173,3.744,6.968,5.019,10.712,2.846c0.211-0.122,21.246-12.042,36.928,3.033c1.52,1.461,3.476,2.187,5.43,2.187
			c2.057,0,4.113-0.806,5.65-2.405C323.335,134.826,323.237,129.865,320.118,126.866z"/>
	</g>
</g>
<g>
	<g>
		<path fill="#251351" d="M433.111,300.17c0-7.533-2.94-14.614-8.28-19.94l-3.321-3.312c-31.788-41.305-80.506-50.976-95.112-52.999
			c16.172-14.417,26.382-35.389,26.382-58.71v-37.763c0-11.119-2.05-21.763-5.768-31.597c1.817-7.84,3.864-19.288,4.473-32.91
			c0.194-4.324-3.155-7.986-7.478-8.18c-4.323-0.194-7.986,3.156-8.178,7.478c-0.183,4.087-0.51,7.951-0.921,11.561
			c-8.385-11.188-19.332-20.343-31.949-26.626c9.888-13.068,20.796-23.072,28.347-29.246c0.652,2.417,1.234,4.862,1.739,7.311
			c0.875,4.239,5.027,6.966,9.257,6.094c4.24-0.874,6.967-5.019,6.094-9.258c-0.927-4.497-2.086-8.986-3.444-13.342
			c-1.208-3.873-4.242-6.918-8.117-8.146c-3.901-1.237-8.171-0.487-11.432,2.016c-8.555,6.594-24.212,20.01-37.575,38.696
			c-7.846-2.252-16.12-3.484-24.68-3.484H236.21c-8.56,0-16.833,1.231-24.679,3.483c-13.348-18.672-29.014-32.094-37.577-38.696
			c-3.248-2.503-7.522-3.255-11.433-2.014c-3.882,1.233-6.914,4.286-8.104,8.146c-11.271,36.185-5.693,71.377-2.071,87.096
			c-3.722,9.839-5.775,20.489-5.775,31.615v7.98c-3.496-1.555-7.361-2.426-11.428-2.426h-28.024
			c-15.564,0-28.226,12.662-28.226,28.225v46.363c0,9.323,4.546,17.601,11.536,22.743v71.215c0,18.451,12.44,34.053,29.553,38.672
			c-0.918,6.842-1.594,13.81-1.987,20.891c-0.24,4.322,3.068,8.02,7.388,8.26c0.148,0.008,0.296,0.013,0.443,0.013
			c4.128,0,7.585-3.228,7.817-7.401c0.5-8.982,1.454-17.77,2.831-26.301c0.092-0.361,0.15-0.735,0.191-1.115
			c3.764-22.658,10.528-43.471,19.783-61.274c13.567,4.411,28.18,7.777,43.588,10.059c2.556,24.237,22.547,43.358,47.173,44.565
			l-7.003,6.986c-3.065,3.056-3.07,8.019-0.014,11.082c1.531,1.535,3.539,2.302,5.548,2.302c2.003,0,4.005-0.763,5.535-2.288
			l26.37-26.306c0.392-0.392,0.793-0.774,1.2-1.146c1.755-1.267,3.425-2.645,5-4.124c11.783-8.524,26.897-11.599,41.099-8.717
			c-0.674,2.431-1.03,4.967-1.03,7.559c0,7.533,2.939,14.614,8.279,19.94l19.78,19.729c5.509,5.494,12.74,8.241,19.976,8.24
			c2.576,0,5.149-0.355,7.647-1.051c3.523,16.928-1.586,34.722-14.042,47.148l-29.663,29.582
			c-12.433,3.37-22.245,13.163-25.644,25.584l-18.842,18.794c-6.766,6.749-15.228,11.453-24.511,13.651l-0.381,0.001l-0.453,0.153
			c-5.301,0.615-10.806,0.928-16.38,0.928c-0.412-0.001-0.824-0.003-1.236-0.014c-11.685-1.379-22.226-6.462-30.502-14.721
			l-14.459-14.418c-9.745-9.723-15.111-22.711-15.111-36.572s5.367-26.85,15.111-36.573l22.444-22.392
			c3.064-3.057,3.07-8.019,0.013-11.083c-3.057-3.064-8.02-3.07-11.083-0.013l-22.444,22.393
			c-12.713,12.685-19.715,29.613-19.715,47.667c0,3.122,0.224,6.208,0.635,9.246c-4.931-2.492-10.496-3.905-16.388-3.905h-11.208
			c-6.081-12.636-9.988-26.889-11.612-42.454c-0.449-4.306-4.313-7.433-8.608-6.981c-4.305,0.449-7.43,4.303-6.981,8.608
			c1.53,14.661,4.902,28.339,10.043,40.828h-13.217c-20.11,0-36.47,16.361-36.47,36.47v32.117c0,4.328,3.509,7.837,7.837,7.837
			h98.848c4.328,0,7.837-3.509,7.837-7.837v-3.357c16.397,6.84,34.836,10.545,54.058,10.799c2.414,0.258,4.831,0.394,7.244,0.394
			c4.636,0,9.257-0.494,13.821-1.444l0.556-0.002l0.473-0.16c14.063-1.772,27.256-5.416,39.383-10.866v4.636
			c0,4.328,3.508,7.837,7.837,7.837h98.848c4.329,0,7.837-3.509,7.837-7.837v-32.115c0-20.11-16.36-36.47-36.47-36.47h-16.232
			c2.258-5.479,4.169-11.194,5.732-17.094l0.128-0.128c17.613-17.57,23.969-43.373,16.897-67.024l31.303-31.223
			C430.17,314.784,433.111,307.703,433.111,300.17z M146.583,258.723c-0.223,0.383-0.449,0.761-0.669,1.148l-4.609,8.107
			l0.262,0.094c-8.495,16.84-14.938,35.963-19.004,56.557c-9.62-3.291-16.46-12.404-16.46-23.083v-65.759
			c0.338,0.012,0.675,0.026,1.017,0.026h28.024c4.071,0,7.939-0.874,11.438-2.43V258.723z M147.696,207.588
			c0,6.921-5.631,12.551-12.551,12.551h-6.175V197.34c0-4.328-3.509-7.837-7.837-7.837c-4.328,0-7.837,3.509-7.837,7.837v22.799
			h-6.175c-6.921,0-12.552-5.631-12.552-12.551v-46.363c0-6.921,5.631-12.551,12.552-12.551h28.024
			c6.921,0,12.551,5.631,12.551,12.551V207.588z M177.743,488.297c0,0.05,0,0.1,0,0.15v7.88h-16.902v-15.238
			c0-4.328-3.509-7.837-7.837-7.837s-7.837,3.509-7.837,7.837v15.238h-18.024v-15.238c0-4.328-3.509-7.837-7.837-7.837
			c-4.328,0-7.837,3.509-7.837,7.837v15.238H94.568v-24.278c0-11.468,9.329-20.797,20.797-20.797h41.582
			c11.468,0,20.797,9.33,20.797,20.797V488.297z M193.416,483.603v-4.699l8.425,8.4C198.96,486.176,196.15,484.942,193.416,483.603z
			 M387.006,451.253c11.466-0.001,20.796,9.328,20.796,20.796v24.278h-18.483v-15.238c0-4.328-3.508-7.837-7.837-7.837
			c-4.329,0-7.837,3.509-7.837,7.837v15.238h-18.023v-15.238c0-4.328-3.508-7.837-7.837-7.837c-4.329,0-7.837,3.509-7.837,7.837
			v15.238h-15.32v-9.719c-0.001-0.067,0.002-0.133,0-0.2v-14.36c0-1.382,0.142-2.731,0.401-4.039
			c0.015-0.073,0.028-0.145,0.041-0.218c1.971-9.431,10.347-16.539,20.355-16.539H387.006z M372.06,255.416
			c-2.508,1.296-4.861,2.988-6.962,5.084l-7.205,7.187l-3.395-5.971c-3.583-6.492-7.453-12.563-11.618-18.178
			C351.4,245.995,361.613,249.743,372.06,255.416z M168.064,17.935c7.564,6.184,18.468,16.187,28.339,29.234
			c-12.61,6.278-23.551,15.425-31.936,26.602C162.749,58.641,162.495,38.58,168.064,17.935z M162.247,127.447
			c0-9.734,1.909-19.026,5.341-27.546c0.172-0.352,0.313-0.719,0.433-1.094c7.91-18.759,23.346-33.593,42.504-40.711
			c0.31-0.088,0.615-0.2,0.917-0.327c7.749-2.763,16.085-4.28,24.771-4.28h26.935v-0.002c8.786,0,17.215,1.547,25.039,4.372
			c0.206,0.078,0.41,0.164,0.62,0.224c19.207,7.128,34.672,22.015,42.571,40.836c0.103,0.311,0.219,0.619,0.361,0.913
			c3.45,8.538,5.368,17.853,5.368,27.614v37.763c0,21.586-10.917,40.663-27.513,52.018c-0.402,0.215-0.785,0.469-1.149,0.758
			c-9.88,6.448-21.662,10.212-34.313,10.212h-24.266c-0.061,0-0.12-0.004-0.181-0.004s-0.12,0.004-0.181,0.004h-24.273
			c-12.442,0-24.148-3.634-34.017-9.974c-0.496-0.434-1.041-0.79-1.613-1.079c-13.312-9.141-23.015-23.322-26.231-40.138v-15.779
			c0-2.729-0.397-5.367-1.123-7.865V127.447z M162.254,215.418h0.001c0.22-0.764,0.415-1.538,0.571-2.327
			c3.191,4.158,6.788,7.968,10.717,11.397c-3.937,3.628-7.703,7.566-11.289,11.806V215.418z M200.87,267.62
			c-12.77-1.958-24.93-4.696-36.305-8.199c0.314-0.474,0.629-0.949,0.947-1.42c0.357-0.53,0.716-1.057,1.077-1.579
			c0.578-0.833,1.161-1.658,1.752-2.471c0.241-0.332,0.487-0.659,0.73-0.988c2.982-4.024,6.127-7.797,9.423-11.303
			c0.327-0.348,0.652-0.699,0.982-1.042c0.605-0.628,1.217-1.241,1.832-1.851c0.474-0.469,0.95-0.934,1.429-1.393
			c0.536-0.513,1.073-1.021,1.616-1.52c0.628-0.576,1.263-1.138,1.901-1.696c0.146-0.129,0.293-0.256,0.439-0.383
			c8.362,4.704,17.639,7.915,27.455,9.304C207.598,249.719,202.895,258.178,200.87,267.62z M273.747,302.408
			c-1.638,1.225-3.225,2.535-4.74,3.911c-3.432,2.352-7.314,4.091-11.488,5.07v-30.513c0-4.328-3.509-7.837-7.837-7.837
			c-4.328,0-7.837,3.509-7.837,7.837v30.513c-15.121-3.551-26.416-17.13-26.416-33.305c0-18.808,15.269-34.117,34.072-34.215h0.363
			c18.803,0.098,34.072,15.407,34.072,34.215C283.937,287.59,280.033,296.201,273.747,302.408z M312.649,233.75
			c0.024,0.021,0.049,0.043,0.073,0.064c0.877,0.759,1.747,1.531,2.607,2.325c0.243,0.225,0.486,0.453,0.728,0.681
			c0.97,0.913,1.931,1.844,2.879,2.802c0.092,0.093,0.185,0.184,0.277,0.278c5.622,5.727,10.837,12.246,15.603,19.514
			c-11.396,3.51-23.559,6.25-36.319,8.208c-2.025-9.447-6.731-17.908-13.286-24.55C295.059,241.678,304.32,238.451,312.649,233.75z
			 M297.905,290.999c0.666-2.481,1.149-5.033,1.425-7.649c15.385-2.279,29.996-5.647,43.584-10.062
			c1.056,2.045,2.088,4.128,3.085,6.264l-12.228,12.197C322.058,288.294,309.61,288.107,297.905,290.999z M413.762,309.013
			l-32.905,32.821c-4.91,4.9-12.904,4.9-17.815,0l-4.32-4.309l16.155-16.114c3.065-3.056,3.07-8.019,0.014-11.082
			c-3.055-3.065-8.018-3.071-11.082-0.015l-16.183,16.143l-4.362-4.351c-2.371-2.364-3.675-5.505-3.675-8.843
			c0-2.781,0.916-5.418,2.589-7.589c0.03-0.038,0.056-0.077,0.086-0.116c0.31-0.394,0.638-0.777,0.999-1.138l17.714-17.669
			c0.026-0.026,0.053-0.051,0.078-0.077l15.111-15.074c2.458-2.449,5.683-3.674,8.909-3.674s6.452,1.225,8.907,3.674l16.037,15.996
			c0.001,0.001,0.002,0.002,0.003,0.003l3.738,3.728c2.371,2.364,3.676,5.505,3.676,8.843
			C417.437,303.508,416.132,306.648,413.762,309.013z"/>
	</g>
</g>
<g>
	<g>
		<path fill="#251351" d="M204.972,155.771l-31.549-3.685c-4.293-0.503-8.19,2.576-8.693,6.874c-0.503,4.299,2.576,8.191,6.874,8.693l31.549,3.685
			c0.308,0.037,0.615,0.053,0.918,0.053c3.922,0,7.308-2.938,7.774-6.928C212.349,160.165,209.271,156.273,204.972,155.771z"/>
	</g>
</g>
<g>
	<g>
		<path fill="#251351" d="M211.826,183.727c-0.59-4.288-4.547-7.287-8.832-6.697l-27.713,3.81c-4.288,0.589-7.286,4.543-6.697,8.831
			c0.54,3.926,3.9,6.771,7.754,6.771c0.355,0,0.716-0.024,1.077-0.074l27.713-3.81C209.418,191.969,212.416,188.015,211.826,183.727
			z"/>
	</g>
</g>
<g>
	<g>
		<path fill="#251351" d="M334.637,158.96c-0.502-4.3-4.408-7.376-8.693-6.874l-31.549,3.685c-4.299,0.502-7.376,4.394-6.874,8.693
			c0.466,3.99,3.853,6.928,7.773,6.928c0.304,0,0.611-0.018,0.919-0.053l31.549-3.685
			C332.062,167.151,335.14,163.258,334.637,158.96z"/>
	</g>
</g>
<g>
	<g>
		<path fill="#251351" d="M324.086,180.839l-27.713-3.81c-4.282-0.585-8.242,2.408-8.83,6.697c-0.589,4.288,2.409,8.241,6.696,8.831l27.713,3.81
			c0.363,0.049,0.721,0.074,1.077,0.074c3.854,0,7.214-2.845,7.753-6.771C331.372,185.384,328.374,181.43,324.086,180.839z"/>
	</g>
</g>
</svg>